# xmcd CD database file
#
# Track frame offsets:
#	150
#	24342
#	39963
#	57185
#	74587
#	87939
#	107511
#	128315
#	148535
#	162430
#	190319
#	223345
#	232066
#
# Disc length: 3298 seconds
#
# Revision: 0
# Processed by: cddbd v1.5.2PL0 Copyright (c) Steve Scherf et al.
# Submitted via: CDex 1.70beta2
#
DISCID=b30ce00d
DTITLE=Jared Stewart - Indian Summer
DYEAR=2008
DGENRE=Blues
TTITLE0=Sweet Home Chicago
TTITLE1=Hell Hound On My Trail
TTITLE2=Every Time I Roll The Dice
TTITLE3=Reflections
TTITLE4=Black Cat Bone
TTITLE5=Just My Imagination (Running Away With Me)
TTITLE6=Indian Summer
TTITLE7=High Gate Shuffle
TTITLE8=I Need You
TTITLE9=Roadhouse Blues
TTITLE10=Uptown Jam
TTITLE11=I Need You (Solo)
TTITLE12=etc
EXTD=YEAR: 2008
EXTT0=
EXTT1=
EXTT2=
EXTT3=
EXTT4=
EXTT5=
EXTT6=
EXTT7=
EXTT8=
EXTT9=
EXTT10=
EXTT11=
EXTT12=
PLAYORDER=
